<svg width="35" height="35" viewBox="0 0 35 35" fill="none" xmlns="http://www.w3.org/2000/svg">
<path d="M17.5 34.4531C8.13477 34.4531 0.546875 26.8652 0.546875 17.5C0.546875 8.13477 8.13477 0.546875 17.5 0.546875C26.8652 0.546875 34.4531 8.13477 34.4531 17.5C34.4531 26.8652 26.8652 34.4531 17.5 34.4531ZM19.4756 24.6367L14.3145 19.6875H26.7969C27.7061 19.6875 28.4375 18.9561 28.4375 18.0469V16.9531C28.4375 16.0439 27.7061 15.3125 26.7969 15.3125H14.3145L19.4756 10.3633C20.1387 9.72754 20.1523 8.66797 19.5029 8.01855L18.751 7.27344C18.1084 6.63086 17.0693 6.63086 16.4336 7.27344L7.3623 16.3379C6.71973 16.9805 6.71973 18.0195 7.3623 18.6553L16.4336 27.7266C17.0762 28.3691 18.1152 28.3691 18.751 27.7266L19.5029 26.9814C20.1523 26.332 20.1387 25.2725 19.4756 24.6367Z" fill="#263377"/>
</svg>
