<svg width="48" height="48" viewBox="0 0 48 48" fill="none" xmlns="http://www.w3.org/2000/svg">
<g clip-path="url(#clip0)">
<path d="M2.23349 9.36016C1.00037 9.36016 0 10.36 0 11.5936V37.2707C0 38.5041 1.00051 39.5042 2.23349 39.5042H45.7666C46.9997 39.5042 48 38.5043 48 37.2707V11.5936C48 10.3601 46.9995 9.36011 45.7666 9.36011H2.23344L2.23349 9.36016ZM15.7395 12.9887C18.4794 12.9887 20.9957 13.9419 22.971 15.5342C21.3091 17.0211 20.0696 18.9748 19.458 21.1892H20.4165C20.981 19.3624 22.0064 17.736 23.358 16.4462C24.7096 17.736 25.735 19.3624 26.2995 21.1892H27.273C26.653 18.9865 25.4117 17.0445 23.751 15.5672C25.7301 13.9547 28.2563 12.9886 31.008 12.9886C37.358 12.9886 42.5055 18.1367 42.5055 24.4876C42.5055 30.8386 37.358 35.9867 31.008 35.9867C28.2106 35.9867 25.6454 34.9882 23.652 33.3271C25.4352 31.7758 26.7498 29.6961 27.351 27.3302H26.4134C25.8796 29.3159 24.8052 31.0821 23.358 32.4632C21.9108 31.0821 20.8378 29.3159 20.304 27.3302H19.4114C20.0161 29.6618 21.3136 31.7124 23.07 33.2492C21.0802 34.8896 18.5251 35.8756 15.7394 35.8756C9.38952 35.8756 4.242 30.7523 4.242 24.4322C4.242 18.112 9.38952 12.9887 15.7395 12.9887ZM30.1455 21.0722C28.764 21.0722 27.42 22.2799 27.42 24.5476C27.42 26.0514 28.146 27.0436 29.574 27.0436C29.9778 27.0438 30.621 26.8787 30.621 26.8787L30.834 25.5647C30.834 25.5647 30.247 25.8616 29.844 25.8616C28.9951 25.8616 28.6545 25.2088 28.6545 24.5072C28.6545 23.0838 29.3849 22.3006 30.198 22.3006C30.8077 22.3006 31.2975 22.6456 31.2975 22.6456L31.4925 21.3676C31.4925 21.3676 30.7675 21.0722 30.1454 21.0722H30.1455ZM41.76 21.1832L40.5585 21.1862L40.3005 22.7672C40.3005 22.7672 39.8488 22.1536 39.1425 22.1536C38.0443 22.1536 37.1295 23.4583 37.1295 24.9587C37.1295 25.9272 37.6164 26.8771 38.6145 26.8771C39.3325 26.8771 39.7305 26.3837 39.7305 26.3837L39.678 26.8051H40.845L41.76 21.1832ZM7.34698 21.1996L6.39 26.8351H7.54349L8.27251 22.5857L8.38051 26.8351H9.20549L10.7445 22.5857L10.062 26.8351H11.2875L12.2325 21.1996H10.3365L9.156 24.6571L9.09451 21.1997H7.34702L7.34698 21.1996ZM19.398 21.5656C19.3719 21.5918 18.7005 25.4636 18.7005 25.9351C18.7005 26.6333 19.0919 26.9452 19.6425 26.9402C20.0371 26.9368 20.3426 26.8377 20.484 26.7962C20.4988 26.7922 20.5275 26.7842 20.5275 26.7842L20.676 25.7762C20.5953 25.7762 20.4763 25.8107 20.3715 25.8107C19.9604 25.8107 19.9148 25.5919 19.941 25.4296L20.2725 23.3732H20.898L21.0495 22.2586H20.46L20.58 21.5656H19.398ZM33.3405 22.1327C32.5354 22.1327 31.9185 22.3982 31.9185 22.3982L31.7475 23.4332C31.7475 23.4332 32.257 23.2216 33.027 23.2216C33.4642 23.2216 33.7845 23.2717 33.7845 23.6356C33.7845 23.8567 33.7455 23.9387 33.7455 23.9387C33.7455 23.9387 33.3998 23.9087 33.24 23.9087C32.2247 23.9087 31.158 24.3536 31.158 25.6922C31.158 26.7468 31.8583 26.9882 32.292 26.9882C33.1204 26.9882 33.4776 26.4378 33.4965 26.4362L33.4575 26.8952H34.491L34.953 23.5832C34.9532 22.1778 33.7562 22.1326 33.3405 22.1326V22.1327ZM13.953 22.1387C13.1449 22.1387 12.525 22.4042 12.525 22.4042L12.354 23.4392C12.354 23.4392 12.8652 23.2276 13.638 23.2276C14.0768 23.2276 14.3985 23.2779 14.3985 23.6416C14.3985 23.8626 14.3595 23.9447 14.3595 23.9447C14.3595 23.9447 14.0128 23.9147 13.8525 23.9147C12.8333 23.9147 11.763 24.3589 11.763 25.6967C11.763 26.7507 12.4647 26.9927 12.9 26.9927C13.7314 26.9927 14.0899 26.4423 14.109 26.4407L14.07 26.8996H15.108L15.5715 23.5892C15.5715 22.1847 14.3702 22.1386 13.953 22.1386V22.1387ZM17.619 22.1387C16.7513 22.1387 15.87 22.4889 15.87 23.6852C15.87 25.0406 17.3385 24.9037 17.3385 25.4746C17.3385 25.8557 16.9287 25.8872 16.6125 25.8872C16.0653 25.8872 15.5733 25.6981 15.5715 25.7072L15.414 26.7422C15.4423 26.7509 15.747 26.8876 16.731 26.8876C16.9952 26.8876 18.5055 26.9548 18.5055 25.3816C18.5055 23.911 17.1075 24.2025 17.1075 23.6116C17.1075 23.3175 17.3345 23.2247 17.751 23.2247C17.9164 23.2247 18.5535 23.2772 18.5535 23.2772L18.7005 22.2316C18.7005 22.2318 18.2894 22.1387 17.619 22.1387H17.619ZM23.043 22.1387C21.8372 22.1389 20.9445 23.4355 20.9445 24.9002C20.9445 26.5907 22.063 26.9927 23.016 26.9927C23.8956 26.9927 24.2835 26.7962 24.2835 26.7962L24.4935 25.6427C24.4935 25.6427 23.8243 25.9367 23.22 25.9367C21.9324 25.9367 22.158 24.9782 22.158 24.9782H24.5955C24.5955 24.9782 24.753 24.2035 24.753 23.8876C24.753 23.0995 24.3597 22.1387 23.043 22.1387H23.043ZM27.4095 22.1882C26.8663 22.1882 26.463 22.9187 26.463 22.9187L26.571 22.2482H25.443L24.6855 26.8772H25.932C26.285 24.9004 26.3495 23.2954 27.192 23.5892C27.3395 22.8241 27.4825 22.5285 27.6435 22.2047C27.6435 22.2047 27.5679 22.1882 27.4095 22.1882H27.4095ZM37.509 22.1882C36.9658 22.1882 36.5625 22.9187 36.5625 22.9187L36.6705 22.2482H35.5425L34.785 26.8772H36.03C36.3832 24.9004 36.4493 23.2954 37.2915 23.5892C37.4392 22.8241 37.5822 22.5285 37.743 22.2047C37.743 22.2047 37.6674 22.1882 37.509 22.1882H37.509ZM23.037 23.1827C23.7218 23.1827 23.5965 23.9557 23.5965 24.0182H22.248C22.248 23.9384 22.3756 23.1827 23.037 23.1827H23.037ZM39.3315 23.2727C39.7674 23.2725 39.9915 23.567 39.9915 24.2596C39.9915 24.8882 39.6745 25.7282 39.018 25.7282C38.5823 25.7282 38.3775 25.3683 38.3775 24.8042C38.3775 23.8817 38.7995 23.2727 39.3315 23.2727H39.3315ZM33.342 24.8476C33.5198 24.8479 33.5566 24.8652 33.5865 24.8732C33.5822 24.8725 33.5814 24.8733 33.5985 24.8762C33.621 25.0823 33.474 26.0492 32.763 26.0492C32.3964 26.0492 32.3025 25.7577 32.3025 25.5856C32.3025 25.2502 32.4771 24.8476 33.342 24.8476ZM13.9545 24.8522C14.1564 24.8524 14.1785 24.875 14.2125 24.8807C14.2351 25.0867 14.0874 26.0522 13.374 26.0522C13.006 26.0522 12.9105 25.762 12.9105 25.5902C12.9105 25.2549 13.0862 24.8522 13.9545 24.8522Z" fill="#3CAA34"/>
</g>
<defs>
<clipPath id="clip0">
<rect width="48" height="48" fill="white"/>
</clipPath>
</defs>
</svg>
