<svg width="44" height="44" viewBox="0 0 44 44" fill="none" xmlns="http://www.w3.org/2000/svg">
<circle cx="22" cy="22" r="22" fill="#FFA100"/>
<path d="M13.809 24.8588L12.6282 29.9548C12.5874 30.1411 12.5888 30.3341 12.6323 30.5198C12.6757 30.7055 12.76 30.8791 12.8792 31.028C12.9983 31.1769 13.1492 31.2973 13.3208 31.3805C13.4924 31.4636 13.6804 31.5073 13.8711 31.5085C13.96 31.5175 14.0495 31.5175 14.1384 31.5085L19.2655 30.3277L29.1095 20.5209L23.6158 15.0396L13.809 24.8588Z" fill="white"/>
<path d="M32.2048 15.6112L28.5382 11.9446C28.2971 11.7047 27.9709 11.5701 27.6308 11.5701C27.2908 11.5701 26.9645 11.7047 26.7235 11.9446L24.6851 13.983L30.1726 19.4705L32.211 17.4321C32.3303 17.3122 32.4248 17.17 32.4891 17.0135C32.5533 16.8571 32.5861 16.6895 32.5855 16.5204C32.585 16.3513 32.551 16.1839 32.4857 16.0279C32.4204 15.8719 32.3249 15.7303 32.2048 15.6112Z" fill="white"/>
</svg>
