<svg width="12" height="22" viewBox="0 0 12 22" fill="none" xmlns="http://www.w3.org/2000/svg">
<path d="M11.825 14.548C11.825 15.8002 11.4104 16.8785 10.5813 17.7829C9.75208 18.6873 8.675 19.2459 7.35 19.4587V21.6071C7.35 21.7217 7.3125 21.8158 7.2375 21.8895C7.1625 21.9632 7.06667 22 6.95 22H5.2625C5.15417 22 5.06042 21.9611 4.98125 21.8834C4.90208 21.8056 4.8625 21.7135 4.8625 21.6071V19.4587C4.3125 19.385 3.78125 19.2582 3.26875 19.0781C2.75625 18.8981 2.33333 18.716 2 18.5318C1.66667 18.3477 1.35833 18.1512 1.075 17.9425C0.791667 17.7338 0.597917 17.5804 0.49375 17.4821C0.389583 17.3839 0.316667 17.3103 0.275 17.2612C0.133333 17.0893 0.125 16.9215 0.25 16.7578L1.5375 15.1004C1.59583 15.0186 1.69167 14.9695 1.825 14.9531C1.95 14.9368 2.05 14.9736 2.125 15.0636L2.15 15.0882C3.09167 15.8984 4.10417 16.41 5.1875 16.6228C5.49583 16.6882 5.80417 16.721 6.1125 16.721C6.7875 16.721 7.38125 16.545 7.89375 16.1931C8.40625 15.8411 8.6625 15.3419 8.6625 14.6953C8.6625 14.4661 8.6 14.2493 8.475 14.0446C8.35 13.84 8.21042 13.6682 8.05625 13.529C7.90208 13.3899 7.65833 13.2364 7.325 13.0686C6.99167 12.9009 6.71667 12.7699 6.5 12.6758C6.28333 12.5817 5.95 12.4487 5.5 12.2768C5.175 12.1458 4.91875 12.0435 4.73125 11.9699C4.54375 11.8962 4.2875 11.7878 3.9625 11.6445C3.6375 11.5013 3.37708 11.3744 3.18125 11.264C2.98542 11.1535 2.75 11.0082 2.475 10.8281C2.2 10.6481 1.97708 10.4741 1.80625 10.3064C1.63542 10.1386 1.45417 9.93806 1.2625 9.7048C1.07083 9.47154 0.922917 9.23419 0.81875 8.99275C0.714583 8.7513 0.627083 8.47917 0.55625 8.17634C0.485417 7.87351 0.45 7.55432 0.45 7.21875C0.45 6.08929 0.858333 5.09896 1.675 4.24777C2.49167 3.39658 3.55417 2.84821 4.8625 2.60268V0.392857C4.8625 0.286458 4.90208 0.194382 4.98125 0.116629C5.06042 0.0388765 5.15417 0 5.2625 0H6.95C7.06667 0 7.1625 0.0368304 7.2375 0.110491C7.3125 0.184152 7.35 0.278274 7.35 0.392857V2.55357C7.825 2.60268 8.28542 2.6968 8.73125 2.83594C9.17708 2.97507 9.53958 3.11217 9.81875 3.24721C10.0979 3.38225 10.3625 3.53571 10.6125 3.70759C10.8625 3.87946 11.025 3.99814 11.1 4.06362C11.175 4.12909 11.2375 4.18638 11.2875 4.23549C11.4292 4.38281 11.45 4.53832 11.35 4.70201L10.3375 6.49442C10.2708 6.61719 10.175 6.68266 10.05 6.69085C9.93333 6.7154 9.82083 6.68676 9.7125 6.60491C9.6875 6.58036 9.62708 6.53125 9.53125 6.45759C9.43542 6.38393 9.27292 6.27548 9.04375 6.13225C8.81458 5.98903 8.57083 5.85807 8.3125 5.7394C8.05417 5.62072 7.74375 5.51432 7.38125 5.4202C7.01875 5.32608 6.6625 5.27902 6.3125 5.27902C5.52083 5.27902 4.875 5.45499 4.375 5.80692C3.875 6.15885 3.625 6.6131 3.625 7.16964C3.625 7.38244 3.66042 7.57887 3.73125 7.75893C3.80208 7.93899 3.925 8.10882 4.1 8.26841C4.275 8.42801 4.43958 8.56306 4.59375 8.67355C4.74792 8.78404 4.98125 8.9109 5.29375 9.05413C5.60625 9.19736 5.85833 9.30785 6.05 9.3856C6.24167 9.46336 6.53333 9.57589 6.925 9.72321C7.36667 9.8869 7.70417 10.0158 7.9375 10.1099C8.17083 10.2041 8.4875 10.3473 8.8875 10.5396C9.2875 10.732 9.60208 10.9059 9.83125 11.0614C10.0604 11.2169 10.3188 11.4215 10.6063 11.6752C10.8938 11.9289 11.1146 12.1888 11.2688 12.4548C11.4229 12.7208 11.5542 13.0339 11.6625 13.394C11.7708 13.7541 11.825 14.1388 11.825 14.548Z" fill="#263377"/>
</svg>
