<svg width="30" height="30" viewBox="0 0 30 30" fill="none" xmlns="http://www.w3.org/2000/svg">
<path d="M17.3438 1.875H28.5938C29.3704 1.875 30 2.50459 30 3.28125V12.6562C30 13.4329 29.3704 14.0625 28.5938 14.0625H17.3438C16.5671 14.0625 15.9375 13.4329 15.9375 12.6562V3.28125C15.9375 2.50459 16.5671 1.875 17.3438 1.875ZM12.6562 1.875H1.40625C0.62959 1.875 0 2.50459 0 3.28125V12.6562C0 13.4329 0.62959 14.0625 1.40625 14.0625H12.6562C13.4329 14.0625 14.0625 13.4329 14.0625 12.6562V3.28125C14.0625 2.50459 13.4329 1.875 12.6562 1.875ZM0 17.3438V26.7188C0 27.4954 0.62959 28.125 1.40625 28.125H12.6562C13.4329 28.125 14.0625 27.4954 14.0625 26.7188V17.3438C14.0625 16.5671 13.4329 15.9375 12.6562 15.9375H1.40625C0.62959 15.9375 0 16.5671 0 17.3438ZM17.3438 28.125H28.5938C29.3704 28.125 30 27.4954 30 26.7188V17.3438C30 16.5671 29.3704 15.9375 28.5938 15.9375H17.3438C16.5671 15.9375 15.9375 16.5671 15.9375 17.3438V26.7188C15.9375 27.4954 16.5671 28.125 17.3438 28.125Z" fill="#FFA100"/>
</svg>
