<svg width="52" height="47" viewBox="0 0 52 47" fill="none" xmlns="http://www.w3.org/2000/svg">
<path d="M2.08 8.74194C0.931476 8.74194 0 9.58362 0 10.6219V36.3779C0 37.4162 0.931944 38.2579 2.08 38.2579H49.92C51.0685 38.2579 52 37.4163 52 36.3779V10.6219C52 9.58367 51.0681 8.74194 49.92 8.74194H2.08ZM31.057 17.5383C32.3226 17.5383 33.3368 17.7909 33.9836 18.0259L33.5416 20.5389L33.2491 20.4053C32.6466 20.1703 31.8727 19.9442 30.8051 19.9602C29.5272 19.9602 28.9364 20.4755 28.9364 20.9576C28.929 21.5008 29.6267 21.859 30.7677 22.3954C32.651 23.2231 33.5214 24.2267 33.5092 25.5459C33.4838 27.9531 31.2563 29.5086 27.8249 29.5086C26.3609 29.494 24.9505 29.2139 24.1881 28.8902L24.6464 26.2935L25.0673 26.4786C26.1394 26.9115 26.8336 27.0867 28.1401 27.0867C29.0783 27.0867 30.0854 26.7316 30.0934 25.9542C30.0995 25.4466 29.6724 25.0847 28.4017 24.5163C27.1635 23.9615 25.522 23.0322 25.5402 21.3659C25.5595 19.1117 27.8314 17.5383 31.057 17.5383ZM4.59872 17.9069H9.86861C10.5783 17.9312 11.1512 18.1377 11.349 18.8337L12.4849 24.133C12.485 24.1335 12.4847 24.1354 12.4849 24.1359L12.8261 25.7237L16.0257 17.9069H19.487L14.3422 29.3485L10.8842 29.3514L8.1315 20.1189C9.7694 20.9031 11.1638 21.8106 11.9714 23.0593C11.7632 22.6642 11.4888 22.2182 11.1378 21.7786C10.729 21.2666 9.84604 20.6057 9.477 20.3245C8.19104 19.3447 6.44462 18.5533 4.55811 18.1346L4.59872 17.9069ZM20.8634 17.9201H24.2483L22.1308 29.3441H18.746L20.8634 17.9201ZM39.9815 17.9201H42.5458L45.2303 29.3441H42.1525C42.1525 29.3441 41.8472 28.0317 41.7479 27.6315C41.2641 27.6315 37.8808 27.6272 37.5001 27.6272C37.3713 27.9364 36.8014 29.3441 36.8014 29.3441H33.319L38.2444 18.869C38.5931 18.1246 39.1875 17.9201 39.9815 17.9201ZM40.2334 20.9928C40.0668 21.4177 39.7768 22.1039 39.7962 22.0738C39.7962 22.0738 38.7543 24.5855 38.4817 25.2375L41.2197 25.236C41.0878 24.6695 40.456 21.9681 40.456 21.9681L40.2334 20.9929V20.9928Z" fill="#3CAA34"/>
</svg>
