<svg width="41" height="41" viewBox="0 0 41 41" fill="none" xmlns="http://www.w3.org/2000/svg">
<path d="M26.9062 30.1094V21.7812H15.2949C14.9551 21.7812 14.6292 21.6463 14.3889 21.406C14.1487 21.1657 14.0137 20.8398 14.0137 20.5C14.0137 20.1602 14.1487 19.8343 14.3889 19.594C14.6292 19.3537 14.9551 19.2188 15.2949 19.2188H26.9062V10.8906C26.905 9.70169 26.4321 8.56181 25.5914 7.7211C24.7507 6.88039 23.6108 6.40752 22.4219 6.40625H7.04688C5.85794 6.40752 4.71806 6.88039 3.87735 7.7211C3.03664 8.56181 2.56377 9.70169 2.5625 10.8906V30.1094C2.56377 31.2983 3.03664 32.4382 3.87735 33.2789C4.71806 34.1196 5.85794 34.5925 7.04688 34.5938H22.4219C23.6108 34.5925 24.7507 34.1196 25.5914 33.2789C26.4321 32.4382 26.905 31.2983 26.9062 30.1094Z" fill="#3CAA34"/>
<path d="M34.0628 21.7812L29.8443 26.0006C29.6142 26.2428 29.4878 26.5654 29.492 26.8995C29.4963 27.2336 29.631 27.5528 29.8672 27.789C30.1035 28.0253 30.4227 28.1599 30.7568 28.1642C31.0909 28.1685 31.4134 28.0421 31.6557 27.8119L38.0619 21.4057C38.302 21.1654 38.4369 20.8397 38.4369 20.5C38.4369 20.1603 38.302 19.8346 38.0619 19.5943L31.6557 13.1881C31.4134 12.9579 31.0909 12.8315 30.7568 12.8358C30.4227 12.8401 30.1035 12.9747 29.8672 13.211C29.631 13.4472 29.4963 13.7664 29.492 14.1005C29.4878 14.4346 29.6142 14.7572 29.8443 14.9994L34.0628 19.2187H26.9062V21.7812H34.0628Z" fill="#3CAA34"/>
</svg>
