<svg width="97" height="62" viewBox="0 0 97 62" fill="none" xmlns="http://www.w3.org/2000/svg">
<rect width="97" height="61.2313" rx="8" fill="#263377"/>
<path fill-rule="evenodd" clip-rule="evenodd" d="M0 57.8011C0 56.4125 0.981042 55.2174 2.343 54.9468C4.68599 54.4813 9.13768 53.5502 13.8237 51.2227C18.5097 48.6623 23.1957 44.9382 27.6473 45.4037C32.3333 45.8693 37.0193 50.7571 41.471 51.6882C46.157 52.6192 50.843 49.5934 55.529 45.8693C59.9807 41.9124 64.6667 37.2573 69.3527 37.7228C73.8043 38.1883 78.4903 44.0072 83.1763 44.4727C87.8623 44.9382 92.314 40.0503 94.657 37.7228C95.4875 36.8152 97 37.4028 97 38.633V58.8882C97 60.1822 95.951 61.2312 94.657 61.2312C92.314 61.2312 87.8623 61.2312 83.1763 61.2312C78.4903 61.2312 73.8043 61.2312 69.3527 61.2312C64.6667 61.2312 59.9807 61.2312 55.529 61.2312C50.843 61.2312 46.157 61.2312 41.471 61.2312C37.0193 61.2312 32.3333 61.2312 27.6473 61.2312C23.1957 61.2312 18.5097 61.2312 13.8237 61.2312C9.13768 61.2312 4.68599 61.2312 2.343 61.2312C1.04899 61.2312 0 60.1822 0 58.8882V57.8011Z" fill="#3CAA34"/>
<rect y="6.6687" width="97" height="6.66875" fill="white"/>
<path d="M77.8 26.53H76.66V28H75.08V26.53H71.31V25.44L74.61 21H76.31L73.25 25.21H75.13V23.9H76.66V25.21H77.8V26.53ZM83.1722 24.32C83.5189 24.4933 83.7822 24.72 83.9622 25C84.1489 25.28 84.2422 25.6033 84.2422 25.97C84.2422 26.4033 84.1189 26.7833 83.8722 27.11C83.6255 27.43 83.2789 27.68 82.8322 27.86C82.3855 28.0333 81.8689 28.12 81.2822 28.12C80.6955 28.12 80.1789 28.0333 79.7322 27.86C79.2922 27.68 78.9489 27.43 78.7022 27.11C78.4622 26.7833 78.3422 26.4033 78.3422 25.97C78.3422 25.6033 78.4322 25.28 78.6122 25C78.7989 24.72 79.0622 24.4933 79.4022 24.32C79.1422 24.16 78.9422 23.96 78.8022 23.72C78.6622 23.4733 78.5922 23.1933 78.5922 22.88C78.5922 22.4733 78.7055 22.12 78.9322 21.82C79.1589 21.52 79.4755 21.29 79.8822 21.13C80.2889 20.9633 80.7555 20.88 81.2822 20.88C81.8155 20.88 82.2855 20.9633 82.6922 21.13C83.1055 21.29 83.4255 21.52 83.6522 21.82C83.8789 22.12 83.9922 22.4733 83.9922 22.88C83.9922 23.1933 83.9222 23.4733 83.7822 23.72C83.6422 23.96 83.4389 24.16 83.1722 24.32ZM81.2822 22.07C80.9555 22.07 80.6922 22.15 80.4922 22.31C80.2989 22.4633 80.2022 22.6767 80.2022 22.95C80.2022 23.2167 80.2989 23.4267 80.4922 23.58C80.6855 23.7333 80.9489 23.81 81.2822 23.81C81.6155 23.81 81.8822 23.7333 82.0822 23.58C82.2822 23.4267 82.3822 23.2167 82.3822 22.95C82.3822 22.6767 82.2822 22.4633 82.0822 22.31C81.8822 22.15 81.6155 22.07 81.2822 22.07ZM81.2822 26.93C81.6889 26.93 82.0089 26.84 82.2422 26.66C82.4822 26.4733 82.6022 26.2267 82.6022 25.92C82.6022 25.6133 82.4822 25.37 82.2422 25.19C82.0089 25.01 81.6889 24.92 81.2822 24.92C80.8822 24.92 80.5655 25.01 80.3322 25.19C80.0989 25.37 79.9822 25.6133 79.9822 25.92C79.9822 26.2333 80.0989 26.48 80.3322 26.66C80.5655 26.84 80.8822 26.93 81.2822 26.93ZM87.4438 20.88C88.4238 20.88 89.1904 21.18 89.7438 21.78C90.2971 22.3733 90.5738 23.23 90.5738 24.35C90.5738 25.1433 90.4238 25.8233 90.1238 26.39C89.8304 26.9567 89.4138 27.3867 88.8738 27.68C88.3338 27.9733 87.7104 28.12 87.0038 28.12C86.6304 28.12 86.2738 28.08 85.9338 28C85.5938 27.9133 85.3038 27.7933 85.0638 27.64L85.6638 26.45C86.0038 26.6833 86.4404 26.8 86.9738 26.8C87.5671 26.8 88.0371 26.6267 88.3838 26.28C88.7304 25.9267 88.9171 25.42 88.9438 24.76C88.5238 25.18 87.9438 25.39 87.2038 25.39C86.7571 25.39 86.3504 25.3 85.9838 25.12C85.6171 24.94 85.3271 24.6867 85.1138 24.36C84.9004 24.0267 84.7938 23.6433 84.7938 23.21C84.7938 22.7433 84.9104 22.3333 85.1438 21.98C85.3771 21.6267 85.6938 21.3567 86.0938 21.17C86.5004 20.9767 86.9504 20.88 87.4438 20.88ZM87.5638 24.18C87.9171 24.18 88.2038 24.0833 88.4238 23.89C88.6504 23.69 88.7638 23.4367 88.7638 23.13C88.7638 22.8233 88.6538 22.5733 88.4338 22.38C88.2204 22.1867 87.9238 22.09 87.5438 22.09C87.1971 22.09 86.9138 22.1833 86.6938 22.37C86.4804 22.5567 86.3738 22.81 86.3738 23.13C86.3738 23.45 86.4804 23.7067 86.6938 23.9C86.9138 24.0867 87.2038 24.18 87.5638 24.18Z" fill="white"/>
</svg>
