<svg width="32" height="37" viewBox="0 0 32 37" fill="none" xmlns="http://www.w3.org/2000/svg">
<g clip-path="url(#clip0)">
<path d="M2.28571 33.531C2.28571 34.451 2.64694 35.3333 3.28992 35.9838C3.9329 36.6343 4.80497 36.9998 5.71429 36.9998H26.2857C27.195 36.9998 28.0671 36.6343 28.7101 35.9838C29.3531 35.3333 29.7143 34.451 29.7143 33.531V9.24977H2.28571V33.531ZM21.7143 15.031C21.7143 14.7244 21.8347 14.4303 22.049 14.2134C22.2633 13.9966 22.554 13.8748 22.8571 13.8748C23.1602 13.8748 23.4509 13.9966 23.6653 14.2134C23.8796 14.4303 24 14.7244 24 15.031V31.2185C24 31.5252 23.8796 31.8193 23.6653 32.0361C23.4509 32.253 23.1602 32.3748 22.8571 32.3748C22.554 32.3748 22.2633 32.253 22.049 32.0361C21.8347 31.8193 21.7143 31.5252 21.7143 31.2185V15.031ZM14.8571 15.031C14.8571 14.7244 14.9776 14.4303 15.1919 14.2134C15.4062 13.9966 15.6969 13.8748 16 13.8748C16.3031 13.8748 16.5938 13.9966 16.8081 14.2134C17.0224 14.4303 17.1429 14.7244 17.1429 15.031V31.2185C17.1429 31.5252 17.0224 31.8193 16.8081 32.0361C16.5938 32.253 16.3031 32.3748 16 32.3748C15.6969 32.3748 15.4062 32.253 15.1919 32.0361C14.9776 31.8193 14.8571 31.5252 14.8571 31.2185V15.031ZM8 15.031C8 14.7244 8.12041 14.4303 8.33474 14.2134C8.54906 13.9966 8.83975 13.8748 9.14286 13.8748C9.44596 13.8748 9.73665 13.9966 9.95098 14.2134C10.1653 14.4303 10.2857 14.7244 10.2857 15.031V31.2185C10.2857 31.5252 10.1653 31.8193 9.95098 32.0361C9.73665 32.253 9.44596 32.3748 9.14286 32.3748C8.83975 32.3748 8.54906 32.253 8.33474 32.0361C8.12041 31.8193 8 31.5252 8 31.2185V15.031ZM30.8571 2.31227H22.2857L21.6143 0.960901C21.4721 0.671994 21.253 0.428971 20.9817 0.259172C20.7104 0.0893737 20.3976 -0.000462958 20.0786 -0.00023147H11.9143C11.596 -0.00146942 11.2838 0.0880323 11.0134 0.25802C10.7431 0.428007 10.5255 0.671604 10.3857 0.960901L9.71429 2.31227H1.14286C0.839753 2.31227 0.549062 2.43409 0.334735 2.65093C0.120408 2.86777 0 3.16186 0 3.46852L0 5.78102C0 6.08768 0.120408 6.38177 0.334735 6.59861C0.549062 6.81545 0.839753 6.93727 1.14286 6.93727H30.8571C31.1602 6.93727 31.4509 6.81545 31.6653 6.59861C31.8796 6.38177 32 6.08768 32 5.78102V3.46852C32 3.16186 31.8796 2.86777 31.6653 2.65093C31.4509 2.43409 31.1602 2.31227 30.8571 2.31227Z" fill="#FF35BD"/>
</g>
<defs>
<clipPath id="clip0">
<rect width="32" height="37" fill="white"/>
</clipPath>
</defs>
</svg>
