<svg width="33" height="33" viewBox="0 0 33 33" fill="none" xmlns="http://www.w3.org/2000/svg">
<path d="M27.5849 25.709C29.0659 23.9271 30.096 21.8147 30.5879 19.5505C31.0799 17.2863 31.0193 14.937 30.4112 12.7012C29.8032 10.4654 28.6656 8.40893 27.0947 6.70577C25.5238 5.00261 23.5658 3.70285 21.3863 2.91645C19.2069 2.13005 16.8701 1.88014 14.5736 2.18787C12.2771 2.49559 10.0885 3.3519 8.19299 4.68434C6.29745 6.01679 4.75071 7.78618 3.68362 9.84283C2.61653 11.8995 2.06048 14.1829 2.06251 16.4999C2.06328 19.8681 3.25024 23.1285 5.4151 25.709L5.39447 25.7265C5.46666 25.8131 5.54916 25.8874 5.62341 25.973C5.71622 26.0792 5.81626 26.1792 5.91216 26.2823C6.20091 26.5958 6.49791 26.897 6.80935 27.1795C6.90422 27.2661 7.00219 27.3466 7.0981 27.4291C7.4281 27.7137 7.76738 27.9839 8.11904 28.2355C8.16441 28.2665 8.20566 28.3067 8.25104 28.3386V28.3263C10.6663 30.0259 13.5476 30.9381 16.501 30.9381C19.4544 30.9381 22.3357 30.0259 24.751 28.3263V28.3386C24.7964 28.3067 24.8366 28.2665 24.883 28.2355C25.2337 27.9829 25.574 27.7137 25.904 27.4291C25.9999 27.3466 26.0978 27.2651 26.1927 27.1795C26.5042 26.8959 26.8012 26.5958 27.0899 26.2823C27.1858 26.1792 27.2848 26.0792 27.3787 25.973C27.4519 25.8874 27.5354 25.8131 27.6076 25.7255L27.5849 25.709ZM16.5 8.24989C17.4178 8.24989 18.3151 8.52205 19.0782 9.03197C19.8413 9.54189 20.4361 10.2667 20.7874 11.1146C21.1386 11.9626 21.2305 12.8957 21.0515 13.7959C20.8724 14.696 20.4304 15.5229 19.7814 16.1719C19.1324 16.8209 18.3055 17.2629 17.4053 17.442C16.5052 17.621 15.5721 17.5291 14.7241 17.1779C13.8762 16.8267 13.1514 16.2319 12.6415 15.4687C12.1315 14.7056 11.8594 13.8083 11.8594 12.8905C11.8594 11.6597 12.3483 10.4794 13.2186 9.60909C14.0889 8.73881 15.2692 8.24989 16.5 8.24989ZM8.25722 25.709C8.27511 24.3549 8.82539 23.0623 9.789 22.1109C10.7526 21.1594 12.0521 20.6256 13.4063 20.6249H19.5938C20.9479 20.6256 22.2474 21.1594 23.211 22.1109C24.1746 23.0623 24.7249 24.3549 24.7428 25.709C22.4811 27.747 19.5445 28.875 16.5 28.875C13.4555 28.875 10.5189 27.747 8.25722 25.709Z" fill="#263377"/>
</svg>
