<svg width="83" height="83" viewBox="0 0 83 83" fill="none" xmlns="http://www.w3.org/2000/svg">
<path d="M69.3828 32.7461C69.3828 31.7374 69.0586 30.9089 68.4102 30.2604L63.4928 25.3971C62.8084 24.7127 61.9978 24.3704 61.0612 24.3704C60.1246 24.3704 59.314 24.7127 58.6296 25.3971L36.5827 47.39L24.3704 35.1777C23.686 34.4933 22.8754 34.151 21.9388 34.151C21.0022 34.151 20.1916 34.4933 19.5072 35.1777L14.5898 40.041C13.9414 40.6895 13.6172 41.518 13.6172 42.5267C13.6172 43.4993 13.9414 44.3099 14.5898 44.9583L34.151 64.5195C34.8355 65.204 35.646 65.5462 36.5827 65.5462C37.5553 65.5462 38.3839 65.204 39.0684 64.5195L68.4102 35.1777C69.0586 34.5293 69.3828 33.7188 69.3828 32.7461ZM83 41.5C83 49.0291 81.1447 55.9728 77.4342 62.3311C73.7237 68.6893 68.6893 73.7237 62.3311 77.4342C55.9728 81.1447 49.0291 83 41.5 83C33.9709 83 27.0272 81.1447 20.6689 77.4342C14.3107 73.7237 9.27626 68.6893 5.56575 62.3311C1.85525 55.9728 0 49.0291 0 41.5C0 33.9709 1.85525 27.0272 5.56575 20.6689C9.27626 14.3107 14.3107 9.27626 20.6689 5.56575C27.0272 1.85525 33.9709 0 41.5 0C49.0291 0 55.9728 1.85525 62.3311 5.56575C68.6893 9.27626 73.7237 14.3107 77.4342 20.6689C81.1447 27.0272 83 33.9709 83 41.5Z" fill="#263377"/>
</svg>
