<svg width="32" height="26" viewBox="0 0 32 26" fill="none" xmlns="http://www.w3.org/2000/svg">
<path d="M17.6 14.625H16.8V10.1562C16.8 9.9318 16.621 9.75 16.4 9.75H15.721C15.484 9.75 15.2525 9.82109 15.0555 9.95465L14.289 10.4736C14.2453 10.5032 14.2077 10.5412 14.1785 10.5855C14.1493 10.6298 14.1289 10.6796 14.1186 10.7319C14.1083 10.7842 14.1082 10.838 14.1184 10.8903C14.1286 10.9427 14.1489 10.9924 14.178 11.0368L14.622 11.7127C14.6511 11.7571 14.6885 11.7952 14.7322 11.8249C14.7758 11.8546 14.8248 11.8753 14.8762 11.8858C14.9277 11.8962 14.9808 11.8963 15.0323 11.8859C15.0838 11.8756 15.1328 11.855 15.1765 11.8254L15.2 11.8097V14.625H14.4C14.179 14.625 14 14.8068 14 15.0312V15.8438C14 16.0682 14.179 16.25 14.4 16.25H17.6C17.821 16.25 18 16.0682 18 15.8438V15.0312C18 14.8068 17.821 14.625 17.6 14.625ZM30.4 3.25H1.6C0.7165 3.25 0 3.9777 0 4.875V21.125C0 22.0223 0.7165 22.75 1.6 22.75H30.4C31.2835 22.75 32 22.0223 32 21.125V4.875C32 3.9777 31.2835 3.25 30.4 3.25ZM2.4 20.3125V17.0625C4.1675 17.0625 5.6 18.5174 5.6 20.3125H2.4ZM2.4 8.9375V5.6875H5.6C5.6 7.48262 4.1675 8.9375 2.4 8.9375ZM16 18.6875C13.349 18.6875 11.2 16.1408 11.2 13C11.2 9.85867 13.349 7.3125 16 7.3125C18.651 7.3125 20.8 9.85867 20.8 13C20.8 16.1418 18.65 18.6875 16 18.6875ZM29.6 20.3125H26.4C26.4 18.5174 27.8325 17.0625 29.6 17.0625V20.3125ZM29.6 8.9375C27.8325 8.9375 26.4 7.48262 26.4 5.6875H29.6V8.9375Z" fill="#3CAA34"/>
</svg>
