<svg width="30" height="26" viewBox="0 0 30 26" fill="none" xmlns="http://www.w3.org/2000/svg">
<path d="M11.5385 23.6364C11.5385 24.2765 11.3101 24.8305 10.8534 25.2983C10.3966 25.7661 9.85577 26 9.23077 26C8.60577 26 8.0649 25.7661 7.60817 25.2983C7.15144 24.8305 6.92308 24.2765 6.92308 23.6364C6.92308 22.9962 7.15144 22.4422 7.60817 21.9744C8.0649 21.5066 8.60577 21.2727 9.23077 21.2727C9.85577 21.2727 10.3966 21.5066 10.8534 21.9744C11.3101 22.4422 11.5385 22.9962 11.5385 23.6364ZM27.6923 23.6364C27.6923 24.2765 27.4639 24.8305 27.0072 25.2983C26.5505 25.7661 26.0096 26 25.3846 26C24.7596 26 24.2188 25.7661 23.762 25.2983C23.3053 24.8305 23.0769 24.2765 23.0769 23.6364C23.0769 22.9962 23.3053 22.4422 23.762 21.9744C24.2188 21.5066 24.7596 21.2727 25.3846 21.2727C26.0096 21.2727 26.5505 21.5066 27.0072 21.9744C27.4639 22.4422 27.6923 22.9962 27.6923 23.6364ZM30 3.54545V13C30 13.2955 29.9008 13.5571 29.7025 13.7848C29.5042 14.0125 29.2608 14.1449 28.9724 14.1818L10.1502 16.4347C10.3065 17.1733 10.3846 17.6042 10.3846 17.7273C10.3846 17.9242 10.2404 18.3182 9.95192 18.9091H26.5385C26.851 18.9091 27.1214 19.026 27.3498 19.2599C27.5781 19.4938 27.6923 19.7708 27.6923 20.0909C27.6923 20.411 27.5781 20.688 27.3498 20.9219C27.1214 21.1558 26.851 21.2727 26.5385 21.2727H8.07692C7.76442 21.2727 7.49399 21.1558 7.26562 20.9219C7.03726 20.688 6.92308 20.411 6.92308 20.0909C6.92308 19.9555 6.97115 19.7616 7.06731 19.5092C7.16346 19.2569 7.25962 19.0353 7.35577 18.8445C7.45192 18.6536 7.58113 18.4074 7.74339 18.1058C7.90565 17.8042 7.9988 17.6226 8.02284 17.5611L4.83173 2.36364H1.15385C0.841346 2.36364 0.570913 2.24669 0.342548 2.01278C0.114183 1.77888 0 1.50189 0 1.18182C0 0.861742 0.114183 0.584754 0.342548 0.350852C0.570913 0.116951 0.841346 0 1.15385 0H5.76923C5.96154 0 6.13281 0.0400095 6.28305 0.120028C6.43329 0.200047 6.55048 0.295455 6.63462 0.40625C6.71875 0.517045 6.79688 0.66785 6.86899 0.858665C6.94111 1.04948 6.98918 1.20952 7.01322 1.33878C7.03726 1.46804 7.07031 1.64962 7.11238 1.88352C7.15445 2.11742 7.18149 2.27746 7.19351 2.36364H28.8462C29.1587 2.36364 29.4291 2.48059 29.6575 2.71449C29.8858 2.94839 30 3.22538 30 3.54545Z" fill="#0DBC32"/>
</svg>
