<svg width="44" height="44" viewBox="0 0 44 44" fill="none" xmlns="http://www.w3.org/2000/svg">
<circle cx="22" cy="22" r="22" fill="#FFA100"/>
<g clip-path="url(#clip0)">
<path d="M25.7188 23.3438C25.7188 24.4626 25.2743 25.5357 24.4831 26.3269C23.6919 27.118 22.6189 27.5625 21.5 27.5625C20.3811 27.5625 19.3081 27.118 18.5169 26.3269C17.7257 25.5357 17.2812 24.4626 17.2812 23.3438C17.2812 22.2249 17.7257 21.1518 18.5169 20.3606C19.3081 19.5695 20.3811 19.125 21.5 19.125C22.6189 19.125 23.6919 19.5695 24.4831 20.3606C25.2743 21.1518 25.7188 22.2249 25.7188 23.3438V23.3438Z" fill="white"/>
<path d="M11.375 15.75C10.4799 15.75 9.62145 16.1056 8.98851 16.7385C8.35558 17.3714 8 18.2299 8 19.125V29.25C8 30.1451 8.35558 31.0035 8.98851 31.6365C9.62145 32.2694 10.4799 32.625 11.375 32.625H31.625C32.5201 32.625 33.3785 32.2694 34.0115 31.6365C34.6444 31.0035 35 30.1451 35 29.25V19.125C35 18.2299 34.6444 17.3714 34.0115 16.7385C33.3785 16.1056 32.5201 15.75 31.625 15.75H29.6473C28.7522 15.7498 27.8939 15.3941 27.2611 14.7611L25.8639 13.3639C25.2311 12.7309 24.3728 12.3752 23.4777 12.375H19.5223C18.6272 12.3752 17.7689 12.7309 17.1361 13.3639L15.7389 14.7611C15.1061 15.3941 14.2478 15.7498 13.3527 15.75H11.375ZM12.2188 19.125C11.995 19.125 11.7804 19.0361 11.6221 18.8779C11.4639 18.7196 11.375 18.505 11.375 18.2812C11.375 18.0575 11.4639 17.8429 11.6221 17.6846C11.7804 17.5264 11.995 17.4375 12.2188 17.4375C12.4425 17.4375 12.6571 17.5264 12.8154 17.6846C12.9736 17.8429 13.0625 18.0575 13.0625 18.2812C13.0625 18.505 12.9736 18.7196 12.8154 18.8779C12.6571 19.0361 12.4425 19.125 12.2188 19.125ZM27.4062 23.3438C27.4062 24.9102 26.784 26.4125 25.6763 27.5201C24.5687 28.6277 23.0664 29.25 21.5 29.25C19.9336 29.25 18.4313 28.6277 17.3237 27.5201C16.216 26.4125 15.5938 24.9102 15.5938 23.3438C15.5938 21.7773 16.216 20.275 17.3237 19.1674C18.4313 18.0598 19.9336 17.4375 21.5 17.4375C23.0664 17.4375 24.5687 18.0598 25.6763 19.1674C26.784 20.275 27.4062 21.7773 27.4062 23.3438V23.3438Z" fill="white"/>
</g>
<defs>
<clipPath id="clip0">
<rect width="27" height="27" fill="white" transform="translate(8 9)"/>
</clipPath>
</defs>
</svg>
