<svg width="34" height="33" viewBox="0 0 34 33" fill="none" xmlns="http://www.w3.org/2000/svg">
<path d="M28.3335 5.5H5.66683C4.09433 5.5 2.84766 6.72375 2.84766 8.25L2.8335 24.75C2.8335 26.2763 4.09433 27.5 5.66683 27.5H28.3335C29.906 27.5 31.1668 26.2763 31.1668 24.75V8.25C31.1668 6.72375 29.906 5.5 28.3335 5.5ZM12.0418 20.625H10.3418L6.72933 15.8125V20.625H4.9585V12.375H6.72933L10.271 17.1875V12.375H12.0418V20.625ZM19.1252 14.1075H15.5835V15.6475H19.1252V17.38H15.5835V18.9062H19.1252V20.625H13.4585V12.375H19.1252V14.1075ZM29.0418 19.25C29.0418 20.0063 28.4043 20.625 27.6252 20.625H21.9585C21.1793 20.625 20.5418 20.0063 20.5418 19.25V12.375H22.3127V18.5763H23.9135V13.7362H25.6843V18.5625H27.271V12.375H29.0418V19.25Z" fill="#3CAA34"/>
</svg>
