<svg width="97" height="62" viewBox="0 0 97 62" fill="none" xmlns="http://www.w3.org/2000/svg">
<rect width="97" height="61.2313" rx="8" fill="#263377"/>
<path fill-rule="evenodd" clip-rule="evenodd" d="M0 57.8011C0 56.4125 0.981042 55.2174 2.343 54.9468C4.68599 54.4813 9.13768 53.5502 13.8237 51.2227C18.5097 48.6623 23.1957 44.9382 27.6473 45.4037C32.3333 45.8693 37.0193 50.7571 41.471 51.6882C46.157 52.6192 50.843 49.5934 55.529 45.8693C59.9807 41.9124 64.6667 37.2573 69.3527 37.7228C73.8043 38.1883 78.4903 44.0072 83.1763 44.4727C87.8623 44.9382 92.314 40.0503 94.657 37.7228C95.4875 36.8152 97 37.4028 97 38.633V58.8882C97 60.1822 95.951 61.2312 94.657 61.2312C92.314 61.2312 87.8623 61.2312 83.1763 61.2312C78.4903 61.2312 73.8043 61.2312 69.3527 61.2312C64.6667 61.2312 59.9807 61.2312 55.529 61.2312C50.843 61.2312 46.157 61.2312 41.471 61.2312C37.0193 61.2312 32.3333 61.2312 27.6473 61.2312C23.1957 61.2312 18.5097 61.2312 13.8237 61.2312C9.13768 61.2312 4.68599 61.2312 2.343 61.2312C1.04899 61.2312 0 60.1822 0 58.8882V57.8011Z" fill="#3CAA34"/>
<rect y="6.6687" width="97" height="6.66875" fill="white"/>
</svg>
