<svg width="45" height="45" viewBox="0 0 45 45" fill="none" xmlns="http://www.w3.org/2000/svg">
<path d="M36.5625 0C38.8867 0 40.874 0.825195 42.5244 2.47559C44.1748 4.12598 45 6.11328 45 8.4375V36.5625C45 38.8867 44.1748 40.874 42.5244 42.5244C40.874 44.1748 38.8867 45 36.5625 45H31.0547V27.5684H36.8848L37.7637 20.7715H31.0547V16.4355C31.0547 15.3418 31.2842 14.5215 31.7432 13.9746C32.2021 13.4277 33.0957 13.1543 34.4238 13.1543L37.998 13.125V7.06055C36.7676 6.88477 35.0293 6.79688 32.7832 6.79688C30.127 6.79688 28.0029 7.57812 26.4111 9.14062C24.8193 10.7031 24.0234 12.9102 24.0234 15.7617V20.7715H18.1641V27.5684H24.0234V45H8.4375C6.11328 45 4.12598 44.1748 2.47559 42.5244C0.825195 40.874 0 38.8867 0 36.5625V8.4375C0 6.11328 0.825195 4.12598 2.47559 2.47559C4.12598 0.825195 6.11328 0 8.4375 0H36.5625Z" fill="#3CAA34"/>
</svg>
