<svg width="45" height="45" viewBox="0 0 45 45" fill="none" xmlns="http://www.w3.org/2000/svg">
<path d="M26.8652 22.7637C26.8652 22.2559 26.8066 21.6309 26.6895 20.8887H16.084V24.7559H22.4414C22.3828 25.2246 22.2217 25.7129 21.958 26.2207C21.6943 26.7285 21.3281 27.2461 20.8594 27.7734C20.3906 28.3008 19.7412 28.7354 18.9111 29.0771C18.0811 29.4189 17.1387 29.5898 16.084 29.5898C14.1504 29.5898 12.5 28.8965 11.1328 27.5098C9.76562 26.123 9.08203 24.4531 9.08203 22.5C9.08203 20.5469 9.76562 18.877 11.1328 17.4902C12.5 16.1035 14.1504 15.4102 16.084 15.4102C17.8809 15.4102 19.375 15.9863 20.5664 17.1387L23.6133 14.1797C21.5039 12.2266 18.9941 11.25 16.084 11.25C12.959 11.25 10.3027 12.3486 8.11523 14.5459C5.92773 16.7432 4.83398 19.3945 4.83398 22.5C4.83398 25.6055 5.92773 28.2568 8.11523 30.4541C10.3027 32.6514 12.959 33.75 16.084 33.75C19.3066 33.75 21.9092 32.7246 23.8916 30.6738C25.874 28.623 26.8652 25.9863 26.8652 22.7637ZM36.9727 24.1113H40.166V20.8887H36.9727V17.666H33.75V20.8887H30.5273V24.1113H33.75V27.334H36.9727V24.1113ZM45 8.4375V36.5625C45 38.8867 44.1748 40.874 42.5244 42.5244C40.874 44.1748 38.8867 45 36.5625 45H8.4375C6.11328 45 4.12598 44.1748 2.47559 42.5244C0.825195 40.874 0 38.8867 0 36.5625V8.4375C0 6.11328 0.825195 4.12598 2.47559 2.47559C4.12598 0.825195 6.11328 0 8.4375 0H36.5625C38.8867 0 40.874 0.825195 42.5244 2.47559C44.1748 4.12598 45 6.11328 45 8.4375Z" fill="#3CAA34"/>
</svg>
