<svg width="30" height="30" viewBox="0 0 30 30" fill="none" xmlns="http://www.w3.org/2000/svg">
<g clip-path="url(#clip0)">
<path d="M0.727295 8.67324L14.3761 14.8648C14.7746 15.0459 15.2251 15.0459 15.6236 14.8648L29.2724 8.67324C30.2421 8.2332 30.2421 6.76777 29.2724 6.32773L15.6242 0.135545C15.4284 0.0460668 15.2157 -0.000244141 15.0004 -0.000244141C14.7852 -0.000244141 14.5725 0.0460668 14.3767 0.135545L0.727295 6.32715C-0.242432 6.76719 -0.242432 8.2332 0.727295 8.67324ZM29.273 13.8459L25.8693 12.3031L16.3982 16.5963C15.9552 16.7973 15.4847 16.8992 15.0001 16.8992C14.5156 16.8992 14.0457 16.7973 13.6021 16.5963L4.13159 12.3031L0.727295 13.8459C-0.242432 14.2854 -0.242432 15.7502 0.727295 16.1896L14.3761 22.3766C14.7746 22.557 15.2251 22.557 15.6236 22.3766L29.273 16.1896C30.2427 15.7502 30.2427 14.2854 29.273 13.8459ZM29.273 21.3342L25.8822 19.7973L16.3982 24.0963C15.9552 24.2973 15.4847 24.3992 15.0001 24.3992C14.5156 24.3992 14.0457 24.2973 13.6021 24.0963L4.1187 19.7973L0.727295 21.3342C-0.242432 21.7736 -0.242432 23.2385 0.727295 23.6779L14.3761 29.8648C14.7746 30.0453 15.2251 30.0453 15.6236 29.8648L29.273 23.6779C30.2427 23.2385 30.2427 21.7736 29.273 21.3342Z" fill="#F9E212"/>
</g>
<defs>
<clipPath id="clip0">
<rect width="30" height="30" fill="white"/>
</clipPath>
</defs>
</svg>
