<svg width="24" height="24" viewBox="0 0 24 24" fill="none" xmlns="http://www.w3.org/2000/svg">
<path fill-rule="evenodd" clip-rule="evenodd" d="M2.29307 2.29279C2.4806 2.10532 2.73491 2 3.00007 2C3.26524 2 3.51955 2.10532 3.70707 2.29279L6.76107 5.34679C8.36311 4.45623 10.1672 3.99239 12.0001 3.99979C15.4831 3.99979 18.0601 5.57679 19.8101 7.26179C21.0359 8.45201 22.0506 9.84177 22.8111 11.3718C23.0041 11.7718 23.0031 12.2308 22.8111 12.6278C22.4711 13.3318 21.2371 15.6598 18.9291 17.5148L21.7071 20.2928C21.8892 20.4814 21.99 20.734 21.9877 20.9962C21.9855 21.2584 21.8803 21.5092 21.6949 21.6946C21.5095 21.88 21.2587 21.9852 20.9965 21.9875C20.7343 21.9897 20.4817 21.8889 20.2931 21.7068L2.29307 3.70679C2.1056 3.51926 2.00029 3.26495 2.00029 2.99979C2.00029 2.73462 2.1056 2.48031 2.29307 2.29279ZM15.4461 14.0318C15.8971 13.2678 16.0813 12.3756 15.9697 11.4955C15.8582 10.6153 15.4572 9.79728 14.8299 9.16996C14.2026 8.54265 13.3845 8.14168 12.5044 8.03014C11.6243 7.91859 10.7321 8.1028 9.96807 8.55379L11.4821 10.0678C11.8213 9.97677 12.1785 9.97667 12.5177 10.0675C12.8569 10.1583 13.1663 10.3369 13.4146 10.5852C13.663 10.8336 13.8415 11.1429 13.9324 11.4822C14.0232 11.8214 14.0231 12.1786 13.9321 12.5178L15.4461 14.0318ZM5.08607 8.58779L8.03107 11.4978C7.95377 12.1074 8.01794 12.7266 8.21862 13.3074C8.4193 13.8881 8.75108 14.4149 9.18823 14.8467C9.62538 15.2785 10.1561 15.6039 10.7393 15.7974C11.3225 15.991 11.9425 16.0476 12.5511 15.9628L14.0371 17.4308C14.8531 18.2368 14.5111 19.7958 13.1821 19.9378C12.7991 19.9778 12.4051 19.9998 12.0001 19.9998C8.51707 19.9998 5.94007 18.4228 4.19007 16.7378C2.96426 15.5476 1.9495 14.1578 1.18907 12.6278C1.09389 12.4318 1.04443 12.2167 1.04443 11.9988C1.04443 11.7809 1.09389 11.5658 1.18907 11.3698C1.40607 10.9248 1.95407 9.88079 2.87407 8.71679C3.00407 8.5531 3.16714 8.41868 3.35263 8.32231C3.53811 8.22594 3.74184 8.16979 3.95051 8.15752C4.15918 8.14525 4.36809 8.17714 4.56359 8.25111C4.75909 8.32508 4.93679 8.43946 5.08507 8.58679L5.08607 8.58779Z" fill="#263377"/>
</svg>
