<svg width="18" height="36" viewBox="0 0 18 36" fill="none" xmlns="http://www.w3.org/2000/svg">
<path d="M8.42149 1.30372e-05C5.50693 -0.00697696 0.20167 2.79814 0.0334901 5.29201C-0.13469 7.78588 0.37324 7.93957 0.60949 8.07601H3.34549C3.97066 6.66439 4.73209 5.83918 6.72949 5.85601C8.72689 5.87284 10.9179 8.37139 9.99349 10.584C9.06913 12.7966 8.21494 13.5673 7.07749 15.96C5.94007 18.3527 5.56012 21.9669 7.05349 24.972L10.4255 25.032C9.59089 20.7424 14.0087 16.9206 15.7655 14.28C17.5223 11.6394 17.6892 10.633 17.7095 8.44801C17.694 6.37459 16.9432 4.30258 15.3095 2.61601C13.6758 0.929443 11.3361 0.00703304 8.42149 1.30372e-05ZM8.58946 27.828C6.33424 27.828 4.50946 29.6528 4.50946 31.908C4.50946 34.1633 6.33424 36 8.58946 36C10.8447 36 12.6695 34.1632 12.6695 31.908C12.6695 29.6528 10.8447 27.828 8.58946 27.828Z" fill="#3CAA34"/>
</svg>
