<svg width="40" height="32" viewBox="0 0 40 32" fill="none" xmlns="http://www.w3.org/2000/svg">
<path d="M0 28C0 29.1044 0.895625 30 2 30H38C39.1044 30 40 29.1044 40 28V8H0V28ZM28 15C28 14.4475 28.4475 14 29 14H35C35.5525 14 36 14.4475 36 15V17C36 17.5525 35.5525 18 35 18H29C28.4475 18 28 17.5525 28 17V15ZM28 22.5C28 22.2237 28.2237 22 28.5 22H35.5C35.7762 22 36 22.2237 36 22.5V23.5C36 23.7763 35.7762 24 35.5 24H28.5C28.2237 24 28 23.7763 28 23.5V22.5ZM4 16.5C4 16.2238 4.22375 16 4.5 16H23.5C23.7763 16 24 16.2238 24 16.5V17.5C24 17.7762 23.7763 18 23.5 18H4.5C4.22375 18 4 17.7762 4 17.5V16.5ZM4 22.5C4 22.2237 4.22375 22 4.5 22H15.5C15.7762 22 16 22.2237 16 22.5V23.5C16 23.7763 15.7762 24 15.5 24H4.5C4.22375 24 4 23.7763 4 23.5V22.5ZM39 2H1C0.4475 2 0 2.4475 0 3V6H40V3C40 2.4475 39.5525 2 39 2Z" fill="#263377"/>
</svg>
