<svg width="43" height="43" viewBox="0 0 43 43" fill="none" xmlns="http://www.w3.org/2000/svg">
<path d="M21.5002 39.533C13.1385 28.6218 8.9585 20.8585 8.9585 16.2414C8.9585 14.5944 9.2829 12.9635 9.91317 11.4419C10.5435 9.92026 11.4673 8.53768 12.6319 7.37308C13.7965 6.20848 15.179 5.28466 16.7007 4.65438C18.2223 4.02411 19.8532 3.69971 21.5002 3.69971C23.1472 3.69971 24.778 4.02411 26.2997 4.65438C27.8213 5.28466 29.2039 6.20848 30.3685 7.37308C31.5331 8.53768 32.4569 9.92026 33.0872 11.4419C33.7174 12.9635 34.0418 14.5944 34.0418 16.2414C34.0418 20.8585 29.8619 28.6218 21.5002 39.533ZM21.5002 23.408C23.4009 23.408 25.2238 22.653 26.5678 21.309C27.9118 19.965 28.6668 18.1421 28.6668 16.2414C28.6668 14.3407 27.9118 12.5178 26.5678 11.1738C25.2238 9.82977 23.4009 9.07471 21.5002 9.07471C19.5994 9.07471 17.7766 9.82977 16.4326 11.1738C15.0886 12.5178 14.3335 14.3407 14.3335 16.2414C14.3335 18.1421 15.0886 19.965 16.4326 21.309C17.7766 22.653 19.5994 23.408 21.5002 23.408Z" fill="#FF35BD"/>
</svg>
