<svg width="41" height="41" viewBox="0 0 41 41" fill="none" xmlns="http://www.w3.org/2000/svg">
<path d="M20.5 2.5625C10.5943 2.5625 2.5625 10.5943 2.5625 20.5C2.5625 30.4057 10.5943 38.4375 20.5 38.4375C30.4057 38.4375 38.4375 30.4057 38.4375 20.5C38.4375 10.5943 30.4057 2.5625 20.5 2.5625ZM28.2476 14.6423L19.8153 26.3337C19.6975 26.4982 19.5421 26.6322 19.3621 26.7247C19.1821 26.8171 18.9827 26.8654 18.7803 26.8654C18.578 26.8654 18.3785 26.8171 18.1985 26.7247C18.0185 26.6322 17.8632 26.4982 17.7453 26.3337L12.7524 19.4149C12.6003 19.2027 12.7524 18.9064 13.0127 18.9064H14.8905C15.2989 18.9064 15.6873 19.1026 15.9275 19.439L18.7783 23.3948L25.0725 14.6663C25.3127 14.334 25.6971 14.1338 26.1095 14.1338H27.9873C28.2476 14.1338 28.3997 14.4301 28.2476 14.6423Z" fill="#3CAA34"/>
</svg>
