<svg width="36" height="32" viewBox="0 0 36 32" fill="none" xmlns="http://www.w3.org/2000/svg">
<path d="M26 12C26 6.475 20.1812 2 13 2C5.81875 2 0 6.475 0 12C0 14.1438 0.88125 16.1187 2.375 17.75C1.5375 19.6375 0.15625 21.1375 0.1375 21.1562C0 21.3 -0.0375 21.5125 0.04375 21.7C0.125 21.8875 0.3 22 0.5 22C2.7875 22 4.68125 21.2313 6.04375 20.4375C8.05625 21.4188 10.4375 22 13 22C20.1812 22 26 17.525 26 12ZM33.625 25.75C35.1188 24.125 36 22.1437 36 20C36 15.8188 32.6562 12.2375 27.9188 10.7437C27.975 11.1562 28 11.575 28 12C28 18.6187 21.2687 24 13 24C12.325 24 11.6687 23.95 11.0188 23.8813C12.9875 27.475 17.6125 30 23 30C25.5625 30 27.9437 29.425 29.9562 28.4375C31.3187 29.2313 33.2125 30 35.5 30C35.7 30 35.8812 29.8813 35.9562 29.7C36.0375 29.5188 36 29.3062 35.8625 29.1562C35.8438 29.1375 34.4625 27.6437 33.625 25.75Z" fill="#263377"/>
</svg>
