<svg width="39" height="34" viewBox="0 0 39 34" fill="none" xmlns="http://www.w3.org/2000/svg">
<path d="M38.6405 15.6898L34.6667 12.248V3.1875C34.6667 2.90571 34.5525 2.63546 34.3494 2.4362C34.1462 2.23694 33.8707 2.125 33.5833 2.125H29.25C28.9627 2.125 28.6871 2.23694 28.484 2.4362C28.2808 2.63546 28.1667 2.90571 28.1667 3.1875V6.61871L21.3132 0.683984C20.888 0.306133 20.0776 0 19.5 0C18.9224 0 18.1147 0.306133 17.6895 0.683984L0.356146 15.6918C0.142582 15.9034 0.0158222 16.1847 0 16.482C0.0138375 16.7417 0.110731 16.9906 0.276927 17.1932L1.72656 18.773C1.95249 18.9719 2.23703 19.0952 2.53906 19.125C2.80092 19.0993 3.05092 19.0051 3.26286 18.8521L4.33943 17.9224V31.875C4.33943 32.4386 4.5677 32.9791 4.97403 33.3776C5.38036 33.7761 5.93146 34 6.50609 34H32.5C33.0746 34 33.6257 33.7761 34.0321 33.3776C34.4384 32.9791 34.6667 32.4386 34.6667 31.875V17.9217L35.7439 18.8514C35.9568 19.0042 36.2073 19.0986 36.4697 19.125C36.7691 19.0943 37.0506 18.9708 37.2734 18.7724L38.7231 17.1912C38.8787 16.9833 38.9743 16.7381 39 16.4814C38.9689 16.1868 38.843 15.9095 38.6405 15.6898ZM19.5 11.6875C20.3571 11.6875 21.1949 11.9368 21.9075 12.4038C22.6201 12.8708 23.1755 13.5345 23.5035 14.3111C23.8315 15.0877 23.9173 15.9422 23.7501 16.7666C23.5829 17.5911 23.1702 18.3483 22.5641 18.9427C21.9581 19.5371 21.186 19.9419 20.3454 20.1058C19.5048 20.2698 18.6335 20.1857 17.8417 19.864C17.0499 19.5423 16.3731 18.9976 15.897 18.2987C15.4208 17.5998 15.1667 16.7781 15.1667 15.9375C15.1667 14.8103 15.6232 13.7293 16.4359 12.9323C17.2485 12.1353 18.3507 11.6875 19.5 11.6875ZM27.0833 29.75H11.9167C11.6293 29.75 11.3538 29.6381 11.1506 29.4388C10.9475 29.2395 10.8333 28.9693 10.8333 28.6875C10.8333 26.9967 11.5182 25.3752 12.7371 24.1797C13.9561 22.9841 15.6094 22.3125 17.3333 22.3125H21.6667C23.3906 22.3125 25.0439 22.9841 26.2629 24.1797C27.4818 25.3752 28.1667 26.9967 28.1667 28.6875C28.1667 28.9693 28.0525 29.2395 27.8494 29.4388C27.6462 29.6381 27.3707 29.75 27.0833 29.75Z" fill="#263377"/>
</svg>
